HIERARCHY
ROOT Hips
{
  OFFSET 13.6774 106.653 -34.4427
  CHANNELS 6 Xposition Yposition Zposition Zrotation Xrotation Yrotation
  JOINT ToSpine
  {
    OFFSET -2.69724 7.43032 -0.144315
    CHANNELS 3 Zrotation Xrotation Yrotation
    JOINT Spine
    {
      OFFSET -0.0310711 10.7595 1.96963
      CHANNELS 3 Zrotation Xrotation Yrotation
      JOINT Spine1
      {
        OFFSET 19.9056 3.91189 0.764692
        CHANNELS 3 Zrotation Xrotation Yrotation
        JOINT Neck
        {
          OFFSET 25.9749 7.03908 -0.130764
          CHANNELS 3 Zrotation Xrotation Yrotation
          JOINT Head
          {
            OFFSET 9.52751 0.295786 -0.907742
            CHANNELS 3 Zrotation Xrotation Yrotation
            End Site
            {
              OFFSET 16.4037 0.713936 2.7358
            }
          }
        }
        JOINT LeftShoulder
        {
          OFFSET 17.7449 4.33886 11.7777
          CHANNELS 3 Zrotation Xrotation Yrotation
          JOINT LeftArm
          {
            OFFSET 0.911315 1.27913 9.80584
            CHANNELS 3 Zrotation Xrotation Yrotation
            JOINT LeftForeArm
            {
              OFFSET 28.6126 1.18197 -3.53199
              CHANNELS 3 Zrotation Xrotation Yrotation
              JOINT LeftHand
              {
                OFFSET 27.5088 0.0218783 0.327423
                CHANNELS 3 Zrotation Xrotation Yrotation
                End Site
                {
                  OFFSET 18.6038 -0.000155887 0.382096
                }
              }
            }
          }
        }
        JOINT RightShoulder
        {
          OFFSET 17.1009 2.89543 -12.2328
          CHANNELS 3 Zrotation Xrotation Yrotation
          JOINT RightArm
          {
            OFFSET 1.4228 0.178766 -10.211
            CHANNELS 3 Zrotation Xrotation Yrotation
            JOINT RightForeArm
            {
              OFFSET 28.733 1.87905 2.64907
              CHANNELS 3 Zrotation Xrotation Yrotation
              JOINT RightHand
              {
                OFFSET 27.4588 0.290562 -0.101845
                CHANNELS 3 Zrotation Xrotation Yrotation
                End Site
                {
                  OFFSET 17.8396 -0.255518 -0.000602873
                }
              }
            }
          }
        }
      }
    }
  }
  JOINT LeftUpLeg
  {
    OFFSET -5.61296 -2.22332 -10.2353
    CHANNELS 3 Zrotation Xrotation Yrotation
    JOINT LeftLeg
    {
      OFFSET 2.56703 -44.7417 -7.93097
      CHANNELS 3 Zrotation Xrotation Yrotation
      JOINT LeftFoot
      {
        OFFSET 3.16933 -46.5642 -3.96578
        CHANNELS 3 Zrotation Xrotation Yrotation
        JOINT LeftToeBase
        {
          OFFSET 0.346054 -6.02161 12.8035
          CHANNELS 3 Zrotation Xrotation Yrotation
          End Site
          {
            OFFSET 0.134235 -1.35082 5.13018
          }
        }
      }
    }
  }
  JOINT RightUpLeg
  {
    OFFSET -5.7928 -1.72406 10.6446
    CHANNELS 3 Zrotation Xrotation Yrotation
    JOINT RightLeg
    {
      OFFSET -2.57161 -44.7178 -7.85259
      CHANNELS 3 Zrotation Xrotation Yrotation
      JOINT RightFoot
      {
        OFFSET -3.10148 -46.5936 -4.03391
        CHANNELS 3 Zrotation Xrotation Yrotation
        JOINT RightToeBase
        {
          OFFSET -0.0828122 -6.13587 12.8035
          CHANNELS 3 Zrotation Xrotation Yrotation
          End Site
          {
            OFFSET -0.131328 -1.35082 5.13018
          }
        }
      }
    }
  }
}
MOTION
Frames: 7
Frame Time: 0.03333333333333333
0.0000 93.1000 0.0000 55.4092 -65.7851 -36.6990 -70.7778 0.0115 87.9164 74.0504 69.5620 3.6487 4.4485 16.4411 12.3671 -126.4717 29.8344 174.7107 -170.9902 68.7886 -148.8218 0.5014 -4.8848 3.6175 -109.7975 33.7312 -157.2944 34.9929 13.0295 -72.6598 0.0186 -0.3713 0.2349 -2.8543 8.2040 39.1153 -51.6909 -29.0216 109.9655 22.2423 -1.0675 87.9187 0.2641 -0.4791 0.1080 -55.0576 5.3653 105.5932 -5.9067 55.3150 -7.8511 -0.0249 -25.8211 -2.2819 6.3208 -17.3083 23.3107 -27.1461 -12.6851 104.2713 2.5062 34.6011 8.5485 0.3821 10.5636 -1.1681 1.2282 -6.2704 -4.5776 
0.0000 93.1000 0.0000 60.4166 -60.5278 -29.1325 -70.7867 0.0411 87.9415 73.5236 70.4184 4.9546 4.8848 17.4701 11.2837 -128.3586 29.7314 174.6362 -175.3060 68.9378 -145.2097 0.2323 -8.7883 1.6638 -96.3610 37.8373 -164.7218 23.5734 6.9325 -73.1939 0.2096 -0.2144 0.1811 -2.8912 8.5746 37.2909 -58.7789 -28.1860 111.0061 17.7781 -0.1176 89.7284 0.0107 -0.2933 -0.0100 -55.4230 6.4161 101.6530 -5.6005 52.2242 -10.2652 -0.2385 -23.4801 -2.3071 7.0528 -17.2613 22.8695 -30.6716 -15.4620 98.1927 -0.1467 30.6210 15.1729 2.6106 13.7336 -1.5623 -0.1426 -5.2617 -4.1772 
0.0000 93.1000 0.0000 63.7313 -54.7897 -24.1315 -70.7811 0.0091 87.9534 72.7030 70.7254 6.7097 5.0108 18.3121 10.6996 -129.0538 30.0112 173.1407 -178.6707 69.5487 -144.3743 0.3875 -12.3670 -1.6858 -83.0608 37.2969 -170.5461 14.0224 2.9574 -76.2359 -0.1025 -0.3238 0.5666 -2.6380 8.3795 34.1302 -68.0421 -28.4515 111.8963 14.3705 0.0829 91.5376 0.3545 -0.4601 0.1826 -54.9929 7.3213 97.7265 -4.5166 48.7703 -6.4495 -1.2835 -23.2421 -2.0353 5.2862 -12.9214 10.0910 -33.4493 -17.3847 91.9072 -1.7319 28.6014 22.9079 2.6350 15.8199 -1.6688 1.1642 -13.3773 -3.9912 
0.0000 93.1000 0.0000 66.5805 -49.5682 -20.2533 -70.8010 -0.0022 88.0054 71.6304 70.9368 8.9856 5.4021 19.1522 8.1920 -127.3164 30.1149 168.3622 -176.5776 69.8246 -146.1742 0.2446 -15.5937 -5.9181 -71.9651 34.3994 -172.7375 12.6713 1.6098 -80.0841 -0.3093 -0.3648 0.3402 -2.3907 7.8447 30.6669 -79.1898 -29.4795 109.7443 11.3529 0.8182 93.7914 0.1627 -0.4768 0.1685 -54.6358 8.1123 94.3698 -3.3112 46.1999 -8.9705 -1.6567 -19.9897 -1.7795 5.9484 -14.0442 10.4955 -36.3623 -18.9646 88.6757 -2.0833 27.6576 15.0361 0.9297 14.1051 -1.4041 1.1533 -13.7327 4.7662 
0.0000 93.1000 0.0000 66.2201 -43.8850 -17.9033 -70.8366 0.4804 88.0045 71.4808 70.9872 9.4974 6.1057 19.7896 5.7600 -127.3796 30.2441 167.0118 -177.5973 70.0070 -146.0833 -2.5341 -17.1736 -10.0974 -63.3430 29.6293 -168.7244 16.6192 0.4345 -85.0408 0.6405 2.1654 -2.0287 -2.1303 7.9333 28.0254 -90.9581 -28.3899 105.6525 8.8641 1.3857 95.5764 -2.4942 2.3920 -1.1650 -52.8566 9.2765 92.1292 -4.1150 42.7041 -10.8730 -1.1317 -15.2871 -3.9585 7.4248 -16.8646 10.5613 -38.6347 -20.9376 83.4866 -1.8258 27.7650 15.8573 1.4557 11.4393 -0.4975 1.3937 -16.0730 -0.6451 
0.0000 93.1000 0.0000 67.6139 -38.5245 -15.7157 -70.9215 -0.0674 88.0916 75.6299 71.1196 6.5458 4.9198 18.8714 3.7228 -126.2307 29.7660 166.7094 179.0294 69.6553 -141.5168 0.1698 -18.3503 -15.7580 -57.9031 24.6309 -160.9327 19.5828 0.0382 -89.3407 0.2314 -0.5419 0.1725 -1.8573 7.8877 28.5796 -102.6951 -23.3863 100.9583 11.7280 1.3597 96.3523 -0.1682 -0.6857 0.5403 -50.2448 10.8130 90.1587 -4.0580 40.3736 -11.9552 -2.4367 -12.9200 -1.1611 6.4134 -15.9986 8.5398 -40.3716 -21.7370 80.8639 -0.7152 28.8123 8.6811 -0.2177 7.6013 -1.1132 0.7335 -13.0755 1.5761 
0.0000 93.1000 0.0000 68.2575 -33.8825 -14.0556 -70.9442 -0.0387 88.1083 79.3286 71.6892 2.7688 3.8810 19.5831 3.9332 -125.4459 30.0548 165.2750 176.1777 70.8899 -137.6595 -0.0071 -18.0608 -19.6787 -55.2039 20.6806 -153.1158 18.9474 -0.6959 -90.1342 0.1566 -0.2795 0.0855 -1.7340 8.0410 29.9780 -111.4035 -16.9903 95.9829 13.4528 1.2240 96.5242 -0.0530 -0.4485 0.3632 -47.4736 12.8432 91.8573 -3.8795 41.4430 -12.8954 -3.8140 -10.7066 -0.9412 5.1910 -13.5718 10.5700 -40.9618 -21.3812 81.1065 -0.0376 30.6127 3.4605 -2.0499 4.5773 -0.6864 1.3809 -14.1389 3.7907 
